<?xml version="1.0" encoding="UTF-8"?>
<svg id="Layer_2" data-name="Layer 2" xmlns="http://www.w3.org/2000/svg" viewBox="0 0 1087.07 296.04">
  <defs>
    <style>
      .cls-1 {
        fill: #4c4b4b;
      }

      .cls-2 {
        fill: #0e1734;
      }

      .cls-3 {
        fill: #f88602;
      }
    </style>
  </defs>
  <g id="Layer_1-2" data-name="Layer 1">
    <g>
      <path class="cls-2" d="M206.02,9.54c35.15,35.73,44.64,89.21,23.96,134.96-21.58-16.54-53.16-9.61-64.71,14.74-7.07,14.9-4.85,31.44,4.95,44.56-48.44,22.44-104.84,9.8-139.7-29.18C-12.16,126.9-9.81,53.5,35.92,8.54,42.65,1.94,52.03-1.11,61.58.45c11.01,1.8,19.69,9.69,23.09,19.18,3.94,11,1.82,23.21-6.42,31.51-16.76,16.87-22.88,40.37-15.06,63.04,6.41,18.6,21.97,32.84,39.31,38.02,21.1,6.31,42.52,1.25,57.96-12.5,27.44-24.45,26.75-64.6,1.29-89.85-11.65-11.56-9.37-30.92,1.63-41.5,12.03-11.58,30.57-11.11,42.64,1.16Z"/>
      <path class="cls-3" d="M321.81,263.3c-2.41,21.34-22.61,36.42-44.03,31.95-18.6-3.88-29.41-20.18-29.71-38.52-.36-21.68-18.24-39.98-40.49-39.93-15.5.03-28.29-7.03-35.04-18.95-6.44-11.35-6.5-24.72-.84-35.69,4.1-9.21,12.38-16.16,22.43-18.43,13.07-3.93,27.07-.67,36.95,8.87,7.75,7.48,10.94,17.79,11.2,28.12.61,24.88,20.5,41.63,44.3,41.59,22.19-.04,37.56,20.5,35.24,40.98Z"/>
      <g>
        <path class="cls-2" d="M334.74,135.73c-14.73,0-25.69-3.61-32.86-10.84-7.18-7.22-10.77-18.01-10.77-32.37v-58.08h22.1v58.08c0,8.12,1.7,14.26,5.1,18.42,3.4,4.16,8.88,6.23,16.43,6.23,7.08,0,12.4-2.08,15.94-6.23,3.54-4.15,5.31-10.29,5.31-18.42v-58.08h21.67v58.08c0,14.36-3.57,25.14-10.69,32.37-7.13,7.22-17.87,10.84-32.23,10.84Z"/>
        <path class="cls-2" d="M422.43,135.73c-6.33,0-12.16-.71-17.49-2.12-5.34-1.42-9.8-3.35-13.39-5.81l5.38-14.17c3.68,2.36,7.77,4.18,12.25,5.45,4.48,1.27,8.95,1.91,13.39,1.91s7.34-.68,9.28-2.05c1.93-1.37,2.9-3.19,2.9-5.45,0-1.7-.64-3.09-1.91-4.18-1.27-1.08-3.24-1.91-5.88-2.48l-14.73-2.69c-6.04-1.13-10.67-3.35-13.88-6.66-3.21-3.3-4.82-7.6-4.82-12.89,0-4.72,1.25-8.83,3.75-12.32,2.5-3.49,6.11-6.23,10.84-8.22,4.72-1.98,10.25-2.97,16.57-2.97,5.38,0,10.48.66,15.3,1.98,4.82,1.32,8.92,3.4,12.32,6.23l-5.81,13.6c-2.83-2.17-6.21-3.9-10.13-5.17-3.92-1.27-7.58-1.91-10.98-1.91-4.44,0-7.67.71-9.7,2.12-2.03,1.42-3.05,3.26-3.05,5.52,0,1.7.59,3.12,1.77,4.25,1.18,1.13,3.05,1.98,5.6,2.55l14.59,2.55c6.33,1.13,11.14,3.28,14.45,6.45,3.3,3.17,4.96,7.49,4.96,12.96,0,5.01-1.35,9.26-4.04,12.75-2.69,3.49-6.4,6.16-11.12,8-4.72,1.84-10.2,2.76-16.43,2.76Z"/>
        <path class="cls-2" d="M467.19,134.31V30.05h21.39v46.04h-1.98c2.27-4.82,5.62-8.52,10.06-11.12,4.44-2.6,9.49-3.9,15.16-3.9,8.59,0,14.94,2.43,19.05,7.3,4.11,4.86,6.16,12.3,6.16,22.31v43.63h-21.39v-42.64c0-5-.92-8.59-2.76-10.77-1.84-2.17-4.7-3.26-8.57-3.26-4.72,0-8.52,1.47-11.4,4.39-2.88,2.93-4.32,6.85-4.32,11.76v40.51h-21.39Z"/>
        <path class="cls-2" d="M580.23,135.73c-8.97,0-15.65-2.45-20.04-7.37-4.39-4.91-6.59-12.42-6.59-22.52v-43.21h21.39v43.06c0,4.63.97,8.03,2.9,10.2,1.93,2.17,4.79,3.26,8.57,3.26,4.25,0,7.77-1.49,10.55-4.46,2.78-2.97,4.18-6.92,4.18-11.83v-40.23h21.39v71.68h-20.97v-13.74h2.27c-2.27,4.91-5.41,8.67-9.42,11.26-4.02,2.6-8.76,3.9-14.24,3.9Z"/>
        <path class="cls-2" d="M640.01,134.31v-52.7c0-3.21-.07-6.42-.21-9.63-.14-3.21-.45-6.33-.92-9.35h20.68l2.55,20.68-3.4.14c.94-5.1,2.48-9.3,4.6-12.61,2.12-3.3,4.77-5.76,7.93-7.37,3.16-1.6,6.73-2.41,10.7-2.41,1.98,0,3.47.07,4.46.21.99.14,2.05.45,3.19.92l-.28,18.7c-1.98-.85-3.66-1.39-5.03-1.63-1.37-.23-3.04-.35-5.03-.35-3.97,0-7.29.76-9.99,2.27-2.69,1.51-4.63,3.75-5.81,6.73-1.18,2.98-1.77,6.49-1.77,10.55v35.84h-21.67Z"/>
        <path class="cls-2" d="M724.43,135.73c-8.97,0-15.65-2.45-20.04-7.37-4.39-4.91-6.59-12.42-6.59-22.52v-43.21h21.39v43.06c0,4.63.97,8.03,2.9,10.2,1.93,2.17,4.79,3.26,8.57,3.26,4.25,0,7.77-1.49,10.55-4.46,2.78-2.97,4.18-6.92,4.18-11.83v-40.23h21.39v71.68h-20.97v-13.74h2.27c-2.27,4.91-5.41,8.67-9.42,11.26-4.02,2.6-8.76,3.9-14.24,3.9Z"/>
        <path class="cls-2" d="M785.77,134.31V34.44h22.1v81.31h44.91v18.56h-67Z"/>
        <path class="cls-2" d="M900.37,135.73c-12.47,0-22.19-3.33-29.18-9.99-6.99-6.66-10.48-15.79-10.48-27.41,0-7.37,1.49-13.83,4.46-19.41,2.98-5.57,7.13-9.94,12.47-13.1,5.33-3.16,11.59-4.75,18.77-4.75s13.1,1.51,17.78,4.53c4.67,3.02,8.24,7.25,10.69,12.68,2.46,5.43,3.68,11.74,3.68,18.91v4.96h-50.29v-10.48h34.85l-2.41,1.98c0-6.04-1.23-10.6-3.68-13.67-2.46-3.07-5.95-4.6-10.48-4.6-5.1,0-9,1.84-11.69,5.52s-4.04,8.97-4.04,15.87v2.12c0,7.08,1.75,12.32,5.24,15.72,3.49,3.4,8.45,5.1,14.87,5.1,3.97,0,7.67-.5,11.12-1.49,3.45-.99,6.73-2.57,9.84-4.75l5.81,14.17c-3.4,2.55-7.46,4.53-12.18,5.95-4.72,1.42-9.77,2.12-15.16,2.12Z"/>
        <path class="cls-2" d="M942.01,134.31v-53.12c0-3.12-.07-6.23-.21-9.35-.14-3.12-.45-6.18-.92-9.21h20.68l1.56,13.32h-1.7c2.36-4.72,5.74-8.38,10.13-10.98,4.39-2.6,9.42-3.9,15.09-3.9,8.4,0,14.71,2.43,18.91,7.3,4.2,4.86,6.3,12.4,6.3,22.59v43.35h-21.39v-42.36c0-5.19-.97-8.88-2.9-11.05-1.94-2.17-4.75-3.26-8.43-3.26-4.72,0-8.52,1.49-11.4,4.46-2.88,2.97-4.32,6.97-4.32,11.97v40.23h-21.39Z"/>
        <path class="cls-2" d="M1055.48,135.73c-6.33,0-12.16-.71-17.49-2.12-5.34-1.42-9.8-3.35-13.39-5.81l5.38-14.17c3.68,2.36,7.77,4.18,12.25,5.45,4.48,1.27,8.95,1.91,13.39,1.91s7.34-.68,9.28-2.05c1.93-1.37,2.9-3.19,2.9-5.45,0-1.7-.64-3.09-1.91-4.18-1.28-1.08-3.24-1.91-5.88-2.48l-14.73-2.69c-6.04-1.13-10.67-3.35-13.88-6.66-3.21-3.3-4.82-7.6-4.82-12.89,0-4.72,1.25-8.83,3.75-12.32,2.5-3.49,6.11-6.23,10.84-8.22,4.72-1.98,10.25-2.97,16.57-2.97,5.38,0,10.48.66,15.3,1.98,4.82,1.32,8.92,3.4,12.32,6.23l-5.81,13.6c-2.83-2.17-6.21-3.9-10.13-5.17-3.92-1.27-7.58-1.91-10.98-1.91-4.44,0-7.67.71-9.7,2.12-2.03,1.42-3.05,3.26-3.05,5.52,0,1.7.59,3.12,1.77,4.25,1.18,1.13,3.05,1.98,5.6,2.55l14.59,2.55c6.33,1.13,11.14,3.28,14.45,6.45,3.3,3.17,4.96,7.49,4.96,12.96,0,5.01-1.35,9.26-4.04,12.75-2.69,3.49-6.4,6.16-11.12,8-4.72,1.84-10.2,2.76-16.43,2.76Z"/>
      </g>
      <g>
        <path class="cls-1" d="M291.91,178.4l9.42-21.64h1.72l9.58,21.64h-2l-2.7-6.23.89.46h-13.32l1.04-.46-2.64,6.23h-2ZM302.16,159.06l-5.25,12.31-.71-.37h11.91l-.52.37-5.37-12.31h-.06Z"/>
        <path class="cls-1" d="M316.31,178.4v-21.64h1.9v21.64h-1.9Z"/>
        <path class="cls-1" d="M323.31,170.78v-1.6h8.47v1.6h-8.47Z"/>
        <path class="cls-1" d="M336.91,178.4v-21.64h8.41c2.23,0,3.95.53,5.17,1.6,1.22,1.06,1.83,2.56,1.83,4.48s-.61,3.37-1.83,4.45c-1.22,1.08-2.94,1.63-5.17,1.63h-6.51v9.48h-1.9ZM338.82,167.25h6.38c1.7,0,2.99-.38,3.87-1.15.88-.77,1.32-1.86,1.32-3.27s-.44-2.51-1.32-3.28c-.88-.78-2.17-1.17-3.87-1.17h-6.38v8.87Z"/>
        <path class="cls-1" d="M355.55,167.56c0-2.29.38-4.26,1.15-5.91.77-1.65,1.88-2.92,3.33-3.81,1.45-.89,3.2-1.33,5.25-1.33s3.74.44,5.2,1.33c1.46.89,2.59,2.16,3.38,3.81.79,1.65,1.18,3.61,1.18,5.88s-.4,4.27-1.2,5.92c-.8,1.66-1.93,2.94-3.39,3.84-1.46.9-3.19,1.35-5.17,1.35s-3.77-.45-5.22-1.35c-1.45-.9-2.57-2.18-3.35-3.84-.78-1.66-1.17-3.62-1.17-5.89ZM357.57,167.56c0,2.95.65,5.24,1.96,6.89s3.22,2.47,5.74,2.47,4.34-.82,5.71-2.47,2.06-3.94,2.06-6.89-.68-5.26-2.04-6.89c-1.36-1.63-3.27-2.44-5.73-2.44s-4.43.81-5.74,2.44-1.96,3.92-1.96,6.89Z"/>
        <path class="cls-1" d="M385.2,178.4l-7.49-21.64h2l6.94,20.29h-1.01l7.21-20.29h1.6l6.88,20.29h-.92l7.09-20.29h1.9l-7.58,21.64h-1.81l-6.66-19.71h.61l-7,19.71h-1.75Z"/>
        <path class="cls-1" d="M413.41,178.4v-21.64h13.45v1.63h-11.6v8.23h10.93v1.63h-10.93v8.53h11.6v1.63h-13.45Z"/>
        <path class="cls-1" d="M431.37,178.4v-21.64h8.53c2.23,0,3.96.52,5.19,1.57,1.23,1.04,1.84,2.52,1.84,4.42,0,1.23-.28,2.28-.83,3.15-.55.87-1.32,1.53-2.3,2-.98.46-2.12.69-3.41.69l.58-.34h.43c.84,0,1.59.2,2.24.6.65.4,1.18,1.08,1.57,2.04l3.01,7.52h-2.09l-2.82-7.18c-.39-1.04-.95-1.71-1.69-2.01-.74-.3-1.68-.45-2.82-.45h-5.53v9.64h-1.9ZM433.27,167.16h6.38c1.74,0,3.06-.38,3.98-1.14.91-.76,1.37-1.84,1.37-3.25s-.46-2.52-1.37-3.27c-.91-.75-2.24-1.12-3.98-1.12h-6.38v8.78Z"/>
        <path class="cls-1" d="M452.49,178.4v-21.64h13.45v1.63h-11.6v8.23h10.93v1.63h-10.93v8.53h11.6v1.63h-13.45Z"/>
        <path class="cls-1" d="M470.45,178.4v-21.64h6.85c2.37,0,4.38.41,6.02,1.24,1.64.83,2.88,2.05,3.73,3.65.85,1.61,1.27,3.58,1.27,5.91s-.42,4.31-1.27,5.92c-.85,1.62-2.09,2.84-3.73,3.67-1.64.83-3.64,1.24-6.02,1.24h-6.85ZM472.35,176.71h4.79c3.09,0,5.39-.76,6.91-2.29,1.51-1.52,2.27-3.81,2.27-6.86s-.76-5.36-2.27-6.88c-1.51-1.51-3.82-2.27-6.91-2.27h-4.79v18.3Z"/>
        <path class="cls-1" d="M500.99,178.4v-21.64h13.45v1.63h-11.6v8.23h10.93v1.63h-10.93v8.53h11.6v1.63h-13.45Z"/>
        <path class="cls-1" d="M518.95,178.4v-21.64h8.53c2.23,0,3.96.52,5.19,1.57,1.23,1.04,1.84,2.52,1.84,4.42,0,1.23-.28,2.28-.83,3.15-.55.87-1.32,1.53-2.3,2s-2.12.69-3.41.69l.58-.34h.43c.84,0,1.59.2,2.24.6.66.4,1.18,1.08,1.57,2.04l3.01,7.52h-2.09l-2.82-7.18c-.39-1.04-.95-1.71-1.69-2.01-.74-.3-1.68-.45-2.82-.45h-5.53v9.64h-1.9ZM520.85,167.16h6.39c1.74,0,3.06-.38,3.97-1.14.91-.76,1.37-1.84,1.37-3.25s-.46-2.52-1.37-3.27c-.91-.75-2.24-1.12-3.97-1.12h-6.39v8.78Z"/>
        <path class="cls-1" d="M540.07,178.4v-21.64h8.41c2.23,0,3.96.53,5.17,1.6s1.83,2.56,1.83,4.48-.61,3.37-1.83,4.45-2.94,1.63-5.17,1.63h-6.51v9.48h-1.9ZM541.97,167.25h6.39c1.7,0,2.99-.38,3.87-1.15s1.32-1.86,1.32-3.27-.44-2.51-1.32-3.28-2.17-1.17-3.87-1.17h-6.39v8.87Z"/>
        <path class="cls-1" d="M584.73,178.64c-.94-.47-1.81-1.03-2.59-1.67-.79-.64-1.45-1.25-1.98-1.83h.49c-.84,1.11-1.88,1.96-3.13,2.58-1.25.61-2.62.92-4.11.92s-2.66-.22-3.68-.66c-1.02-.44-1.8-1.05-2.33-1.84s-.8-1.72-.8-2.81c0-1.39.41-2.58,1.23-3.58.82-.99,2-2.01,3.56-3.05l.98-.64-.25.37c-1-1.1-1.72-2.06-2.16-2.85-.44-.8-.66-1.63-.66-2.49,0-.92.21-1.72.63-2.39.42-.68,1.01-1.21,1.78-1.6.77-.39,1.67-.58,2.72-.58,1.31,0,2.41.37,3.3,1.12.89.75,1.34,1.78,1.34,3.09,0,.72-.15,1.39-.45,2.03-.3.63-.79,1.27-1.49,1.9s-1.66,1.34-2.89,2.12l.06-.49,6.2,6.84h-.43c.53-.84.95-1.9,1.26-3.18.31-1.28.48-2.63.52-4.07h1.69c-.04,1.7-.27,3.27-.68,4.73-.41,1.45-.95,2.73-1.63,3.84l-.06-.64c.51.57,1.16,1.18,1.93,1.81.78.63,1.61,1.18,2.49,1.63l-.86,1.41ZM573.43,177.05c1.33,0,2.5-.27,3.51-.8,1.01-.53,1.89-1.32,2.62-2.36l-.03.64-6.75-7.4.67.03-.98.64c-.94.63-1.71,1.23-2.3,1.78-.59.55-1.03,1.12-1.3,1.69-.28.57-.41,1.24-.41,1.99,0,1.19.42,2.11,1.27,2.78.85.67,2.08,1,3.7,1ZM574.42,158.01c-1,0-1.81.28-2.42.84-.61.56-.92,1.3-.92,2.23,0,.47.08.91.25,1.3s.43.85.81,1.35c.38.5.9,1.12,1.55,1.86l-.55.12c1.49-.96,2.57-1.81,3.24-2.53s1-1.5,1-2.32c0-.86-.27-1.55-.81-2.07-.54-.52-1.25-.78-2.13-.78Z"/>
        <path class="cls-1" d="M595.84,178.4v-21.64h1.9v9.95h.06l10.81-9.95h2.55l-12.25,11.14.03-1.1,13.11,11.6h-2.61l-11.63-10.28h-.06v10.28h-1.9Z"/>
        <path class="cls-1" d="M614.84,178.4v-21.64h8.53c2.23,0,3.96.52,5.19,1.57,1.23,1.04,1.84,2.52,1.84,4.42,0,1.23-.28,2.28-.83,3.15-.55.87-1.32,1.53-2.3,2s-2.12.69-3.41.69l.58-.34h.43c.84,0,1.59.2,2.24.6.66.4,1.18,1.08,1.57,2.04l3.01,7.52h-2.09l-2.82-7.18c-.39-1.04-.95-1.71-1.69-2.01-.74-.3-1.68-.45-2.82-.45h-5.53v9.64h-1.9ZM616.75,167.16h6.39c1.74,0,3.06-.38,3.97-1.14.91-.76,1.37-1.84,1.37-3.25s-.46-2.52-1.37-3.27c-.91-.75-2.24-1.12-3.97-1.12h-6.39v8.78Z"/>
        <path class="cls-1" d="M633.57,178.4l9.42-21.64h1.72l9.58,21.64h-2l-2.7-6.23.89.46h-13.32l1.04-.46-2.64,6.23h-2ZM643.82,159.06l-5.25,12.31-.71-.37h11.91l-.52.37-5.37-12.31h-.06Z"/>
        <path class="cls-1" d="M665.8,178.4v-21.64h8.53c2.23,0,3.96.52,5.19,1.57,1.23,1.04,1.84,2.52,1.84,4.42,0,1.23-.28,2.28-.83,3.15-.55.87-1.32,1.53-2.3,2s-2.12.69-3.41.69l.58-.34h.43c.84,0,1.59.2,2.24.6.66.4,1.18,1.08,1.57,2.04l3.01,7.52h-2.09l-2.82-7.18c-.39-1.04-.95-1.71-1.69-2.01-.74-.3-1.68-.45-2.82-.45h-5.53v9.64h-1.9ZM667.71,167.16h6.39c1.74,0,3.06-.38,3.97-1.14.91-.76,1.37-1.84,1.37-3.25s-.46-2.52-1.37-3.27c-.91-.75-2.24-1.12-3.97-1.12h-6.39v8.78Z"/>
        <path class="cls-1" d="M686.92,178.4v-21.64h13.45v1.63h-11.6v8.23h10.93v1.63h-10.93v8.53h11.6v1.63h-13.45Z"/>
        <path class="cls-1" d="M713.87,178.64c-2.13,0-3.93-.44-5.42-1.33s-2.61-2.16-3.39-3.82c-.78-1.66-1.17-3.63-1.17-5.92s.39-4.26,1.17-5.91c.78-1.65,1.91-2.92,3.39-3.81,1.48-.89,3.29-1.33,5.42-1.33,1.56,0,2.94.24,4.14.72,1.21.48,2.26,1.19,3.16,2.13l-.8,1.54c-1-.92-2.01-1.59-3.01-2.01-1-.42-2.17-.63-3.5-.63-2.6,0-4.57.81-5.92,2.44-1.35,1.63-2.03,3.91-2.03,6.86s.67,5.24,2.03,6.88c1.35,1.64,3.33,2.46,5.92,2.46,1.33,0,2.5-.21,3.5-.63,1-.42,2-1.09,3.01-2.01l.8,1.54c-.9.94-1.96,1.65-3.18,2.13s-2.59.72-4.13.72Z"/>
        <path class="cls-1" d="M724.25,167.56c0-2.29.38-4.26,1.15-5.91.77-1.65,1.88-2.92,3.33-3.81,1.45-.89,3.2-1.33,5.25-1.33s3.74.44,5.2,1.33c1.46.89,2.59,2.16,3.38,3.81.79,1.65,1.18,3.61,1.18,5.88s-.4,4.27-1.2,5.92c-.8,1.66-1.93,2.94-3.39,3.84-1.46.9-3.19,1.35-5.17,1.35s-3.77-.45-5.22-1.35c-1.45-.9-2.57-2.18-3.35-3.84-.78-1.66-1.17-3.62-1.17-5.89ZM726.28,167.56c0,2.95.65,5.24,1.96,6.89,1.31,1.65,3.22,2.47,5.74,2.47s4.34-.82,5.71-2.47c1.37-1.65,2.06-3.94,2.06-6.89s-.68-5.26-2.04-6.89c-1.36-1.63-3.27-2.44-5.72-2.44s-4.43.81-5.74,2.44c-1.31,1.63-1.96,3.92-1.96,6.89Z"/>
        <path class="cls-1" d="M748.59,178.4v-21.64h1.54l14.49,19.4h-.67v-19.4h1.75v21.64h-1.5l-14.49-19.4h.64v19.4h-1.75Z"/>
        <path class="cls-1" d="M780.52,178.64c-2.13,0-3.93-.44-5.42-1.33s-2.61-2.16-3.39-3.82c-.78-1.66-1.17-3.63-1.17-5.92s.39-4.26,1.17-5.91c.78-1.65,1.91-2.92,3.39-3.81,1.48-.89,3.29-1.33,5.42-1.33,1.56,0,2.94.24,4.14.72,1.21.48,2.26,1.19,3.16,2.13l-.8,1.54c-1-.92-2.01-1.59-3.01-2.01-1-.42-2.17-.63-3.5-.63-2.6,0-4.57.81-5.92,2.44-1.35,1.63-2.03,3.91-2.03,6.86s.67,5.24,2.03,6.88c1.35,1.64,3.33,2.46,5.92,2.46,1.33,0,2.5-.21,3.5-.63,1-.42,2-1.09,3.01-2.01l.8,1.54c-.9.94-1.96,1.65-3.18,2.13s-2.59.72-4.13.72Z"/>
        <path class="cls-1" d="M792.4,178.4v-21.64h1.9v21.64h-1.9Z"/>
        <path class="cls-1" d="M799.98,178.4v-21.64h1.9v19.95h11.27v1.69h-13.17Z"/>
        <path class="cls-1" d="M816.5,178.4v-21.64h1.9v21.64h-1.9Z"/>
        <path class="cls-1" d="M822.02,178.4l9.42-21.64h1.72l9.58,21.64h-2l-2.7-6.23.89.46h-13.32l1.04-.46-2.64,6.23h-2ZM832.27,159.06l-5.25,12.31-.71-.37h11.91l-.52.37-5.37-12.31h-.06Z"/>
        <path class="cls-1" d="M849.4,178.4v-19.98h-7.86v-1.66h17.59v1.66h-7.83v19.98h-1.9Z"/>
        <path class="cls-1" d="M862.42,178.4v-21.64h1.9v21.64h-1.9Z"/>
        <path class="cls-1" d="M869.14,167.56c0-2.29.38-4.26,1.15-5.91.77-1.65,1.88-2.92,3.33-3.81,1.45-.89,3.2-1.33,5.25-1.33s3.74.44,5.2,1.33c1.46.89,2.59,2.16,3.38,3.81.79,1.65,1.18,3.61,1.18,5.88s-.4,4.27-1.2,5.92c-.8,1.66-1.93,2.94-3.39,3.84-1.46.9-3.19,1.35-5.17,1.35s-3.77-.45-5.22-1.35c-1.45-.9-2.57-2.18-3.35-3.84-.78-1.66-1.17-3.62-1.17-5.89ZM871.17,167.56c0,2.95.65,5.24,1.96,6.89,1.31,1.65,3.22,2.47,5.74,2.47s4.34-.82,5.71-2.47c1.37-1.65,2.06-3.94,2.06-6.89s-.68-5.26-2.04-6.89c-1.36-1.63-3.27-2.44-5.72-2.44s-4.43.81-5.74,2.44c-1.31,1.63-1.96,3.92-1.96,6.89Z"/>
        <path class="cls-1" d="M893.48,178.4v-21.64h1.54l14.49,19.4h-.67v-19.4h1.75v21.64h-1.5l-14.49-19.4h.64v19.4h-1.75Z"/>
        <path class="cls-1" d="M924.12,178.4v-21.64h8.41c2.23,0,3.96.53,5.17,1.6s1.83,2.56,1.83,4.48-.61,3.37-1.83,4.45-2.94,1.63-5.17,1.63h-6.51v9.48h-1.9ZM926.02,167.25h6.39c1.7,0,2.99-.38,3.87-1.15s1.32-1.86,1.32-3.27-.44-2.51-1.32-3.28-2.17-1.17-3.87-1.17h-6.39v8.87Z"/>
        <path class="cls-1" d="M943.89,178.4v-21.64h1.9v19.95h11.27v1.69h-13.17Z"/>
        <path class="cls-1" d="M957.64,178.4l9.42-21.64h1.72l9.58,21.64h-2l-2.7-6.23.89.46h-13.32l1.04-.46-2.64,6.23h-2ZM967.89,159.06l-5.25,12.31-.71-.37h11.91l-.52.37-5.37-12.31h-.06Z"/>
        <path class="cls-1" d="M985.03,178.4v-19.98h-7.86v-1.66h17.59v1.66h-7.83v19.98h-1.9Z"/>
        <path class="cls-1" d="M998.04,178.4v-21.64h13.14v1.63h-11.24v8.26h10.59v1.63h-10.59v10.13h-1.9Z"/>
        <path class="cls-1" d="M1013.76,167.56c0-2.29.38-4.26,1.15-5.91.77-1.65,1.88-2.92,3.33-3.81,1.45-.89,3.2-1.33,5.25-1.33s3.74.44,5.2,1.33c1.46.89,2.59,2.16,3.38,3.81.79,1.65,1.18,3.61,1.18,5.88s-.4,4.27-1.2,5.92c-.8,1.66-1.93,2.94-3.39,3.84-1.46.9-3.19,1.35-5.17,1.35s-3.77-.45-5.22-1.35c-1.45-.9-2.57-2.18-3.35-3.84-.78-1.66-1.17-3.62-1.17-5.89ZM1015.78,167.56c0,2.95.65,5.24,1.96,6.89,1.31,1.65,3.22,2.47,5.74,2.47s4.34-.82,5.71-2.47c1.37-1.65,2.06-3.94,2.06-6.89s-.68-5.26-2.04-6.89c-1.36-1.63-3.27-2.44-5.72-2.44s-4.43.81-5.74,2.44c-1.31,1.63-1.96,3.92-1.96,6.89Z"/>
        <path class="cls-1" d="M1038.1,178.4v-21.64h8.53c2.23,0,3.96.52,5.19,1.57,1.23,1.04,1.84,2.52,1.84,4.42,0,1.23-.28,2.28-.83,3.15-.55.87-1.32,1.53-2.3,2s-2.12.69-3.41.69l.58-.34h.43c.84,0,1.59.2,2.24.6.66.4,1.18,1.08,1.57,2.04l3.01,7.52h-2.09l-2.82-7.18c-.39-1.04-.95-1.71-1.69-2.01-.74-.3-1.68-.45-2.82-.45h-5.53v9.64h-1.9ZM1040,167.16h6.39c1.74,0,3.06-.38,3.97-1.14.91-.76,1.37-1.84,1.37-3.25s-.46-2.52-1.37-3.27c-.91-.75-2.24-1.12-3.97-1.12h-6.39v8.78Z"/>
        <path class="cls-1" d="M1059.22,178.4v-21.64h1.66l9.03,20.38h-.89l9.06-20.38h1.63v21.64h-1.75v-19.4h.83l-8.63,19.4h-1.38l-8.63-19.4h.83v19.4h-1.75Z"/>
      </g>
    </g>
  </g>
</svg>